<svg width="26" height="27" viewBox="0 0 26 27" fill="none" xmlns="http://www.w3.org/2000/svg">
<path d="M4.20182 25.1668H20.8685C21.789 25.1668 22.5352 24.4206 22.5352 23.5002V6.8335L17.5352 1.8335H4.20182C3.28135 1.8335 2.53516 2.57969 2.53516 3.50016V23.5002C2.53516 24.4206 3.28135 25.1668 4.20182 25.1668Z" fill="#D5D5D5"/>
<path d="M7.53516 12.4925H6.53516V14.4925H7.53516V12.4925ZM17.5352 14.4925H18.5352V12.4925H17.5352V14.4925ZM7.53516 17.5002H6.53516V19.5002H7.53516V17.5002ZM17.5352 19.5002H18.5352V17.5002H17.5352V19.5002ZM7.53516 7.49579H6.53516V9.49579H7.53516V7.49579ZM17.5352 9.49579H18.5352V7.49579H17.5352V9.49579ZM22.5352 6.8335H23.5352V6.41928L23.2423 6.12639L22.5352 6.8335ZM17.5352 1.8335L18.2423 1.12639L17.9494 0.833496H17.5352V1.8335ZM7.53516 14.4925H17.5352V12.4925H7.53516V14.4925ZM7.53516 19.5002H17.5352V17.5002H7.53516V19.5002ZM7.53516 9.49579H17.5352V7.49579H7.53516V9.49579ZM20.8685 24.1668H4.20182V26.1668H20.8685V24.1668ZM3.53516 23.5002V3.50016H1.53516V23.5002H3.53516ZM21.5352 6.8335V23.5002H23.5352V6.8335H21.5352ZM4.20182 2.8335H17.5352V0.833496H4.20182V2.8335ZM16.828 2.5406L21.828 7.5406L23.2423 6.12639L18.2423 1.12639L16.828 2.5406ZM4.20182 24.1668C3.83363 24.1668 3.53516 23.8683 3.53516 23.5002H1.53516C1.53516 24.9729 2.72906 26.1668 4.20182 26.1668V24.1668ZM20.8685 26.1668C22.3412 26.1668 23.5352 24.9729 23.5352 23.5002H21.5352C21.5352 23.8683 21.2367 24.1668 20.8685 24.1668V26.1668ZM3.53516 3.50016C3.53516 3.13197 3.83363 2.8335 4.20182 2.8335V0.833496C2.72906 0.833496 1.53516 2.0274 1.53516 3.50016H3.53516Z" fill="black"/>
</svg>
